# xmcd
#
# Track frame offsets:
#	150
#	11540
#	23856
#	40337
#	55629
#	72921
#	84854
#	97904
#	110713
#	125757
#	142012
#	154632
#	169232
#	182064
#
# Disc length: 2694 seconds
#
# Revision: 2
# Processed by: cddbd v1.5.2PL0 Copyright (c) Steve Scherf et al.
# Submitted via: audiograbber 1.83.01
#
DISCID=b50a840e
DTITLE=Various Artist - Classic Country - 1981-1983 [Disc 1]
DYEAR=2001
DGENRE=Country
TTITLE0=Willie Nelson - On The Road Again
TTITLE1=Dolly Parton - 9 To 5
TTITLE2=Ronnie Milsap - Any Day Now
TTITLE3=Juice Newton - Queen Of Hearts
TTITLE4=Kenny Rogers and Sheena Easton - We've Got Tonight
TTITLE5=Oak Ridge Boys - Elvira
TTITLE6=Terri Gibbs - Somebody's Knockin'
TTITLE7=Michael Murphey - What's Forever For
TTITLE8=Sylvia - Nobody
TTITLE9=Alabama - The Closer You Get
TTITLE10=Charley Pride - Mountain Of Love
TTITLE11=Merle Haggard and George Jones - Yesterday's Wine
TTITLE12=Lacy J. Dalton - Dream Baby
TTITLE13=Dr Hook - The Wild Colonial Boy
EXTD=YEAR: 2001
EXTT0=
EXTT1=
EXTT2=
EXTT3=
EXTT4=
EXTT5=
EXTT6=
EXTT7=
EXTT8=
EXTT9=
EXTT10=
EXTT11=
EXTT12=
EXTT13=
PLAYORDER=
